<?xml version="1.0" encoding="UTF-8" standalone="no"?>
<!DOCTYPE svg PUBLIC "-//W3C//DTD SVG 1.1//EN"
 "http://www.w3.org/Graphics/SVG/1.1/DTD/svg11.dtd">
<!-- Generated by graphviz version 2.26.3 (20100126.1600)
 -->
<!-- Title: G Pages: 1 -->
<svg width="561pt" height="225pt"
 viewBox="0.00 0.00 561.00 225.00" xmlns="http://www.w3.org/2000/svg" xmlns:xlink="http://www.w3.org/1999/xlink">
<g id="graph1" class="graph" transform="scale(1 1) rotate(0) translate(4 221)">
<title>G</title>
<polygon fill="white" stroke="white" points="-4,5 -4,-221 558,-221 558,5 -4,5"/>
<text text-anchor="middle" x="276.5" y="-8.4" font-family="Times Roman,serif" font-size="14.00">Verkaufsprozess</text>
<!-- state_draft -->
<g id="node1" class="node"><title>state_draft</title>
<text text-anchor="start" x="21.5" y="-200.4" font-family="Times Roman,serif" font-size="14.00">Status:</text>
<text text-anchor="start" x="21.5" y="-183.4" font-family="Times Roman,serif" font-size="14.00">Entwurf</text>
</g>
<!-- state_quotation -->
<g id="node2" class="node"><title>state_quotation</title>
<text text-anchor="start" x="176" y="-200.4" font-family="Times Roman,serif" font-size="14.00">Status:</text>
<text text-anchor="start" x="176" y="-183.4" font-family="Times Roman,serif" font-size="14.00">Angebot</text>
</g>
<!-- state_confirmed -->
<g id="node3" class="node"><title>state_confirmed</title>
<text text-anchor="start" x="318.5" y="-200.4" font-family="Times Roman,serif" font-size="14.00">Status:</text>
<text text-anchor="start" x="318.5" y="-183.4" font-family="Times Roman,serif" font-size="14.00">Beauftragt</text>
</g>
<!-- state_done -->
<g id="node4" class="node"><title>state_done</title>
<text text-anchor="start" x="478" y="-200.4" font-family="Times Roman,serif" font-size="14.00">Status:</text>
<text text-anchor="start" x="478" y="-183.4" font-family="Times Roman,serif" font-size="14.00">Erledigt</text>
</g>
<!-- state_confirmed&#45;&gt;state_done -->
<g id="edge14" class="edge"><title>state_confirmed&#45;&gt;state_done</title>
<path fill="none" stroke="black" stroke-dasharray="1,5" d="M401.107,-196C420.576,-196 440.044,-196 459.512,-196"/>
<polygon fill="black" stroke="black" points="459.693,-199.5 469.693,-196 459.693,-192.5 459.693,-199.5"/>
</g>
<!-- draft -->
<g id="node6" class="node"><title>draft</title>
<ellipse fill="yellow" stroke="yellow" cx="50" cy="-121" rx="50.2242" ry="18"/>
<text text-anchor="middle" x="50" y="-116.9" font-family="Times Roman,serif" font-size="14.00">Entwurf</text>
</g>
<!-- draft&#45;&gt;state_draft -->
<g id="edge6" class="edge"><title>draft&#45;&gt;state_draft</title>
<path fill="none" stroke="black" d="M50,-139.042C50,-149.775 50,-163.449 50,-174.709"/>
</g>
<!-- quotation -->
<g id="node7" class="node"><title>quotation</title>
<ellipse fill="yellow" stroke="yellow" cx="205" cy="-121" rx="50.9221" ry="18"/>
<text text-anchor="middle" x="205" y="-116.9" font-family="Times Roman,serif" font-size="14.00">Angebot</text>
</g>
<!-- draft&#45;&gt;quotation -->
<g id="edge16" class="edge"><title>draft&#45;&gt;quotation</title>
<path fill="none" stroke="black" d="M110.304,-121C121.418,-121 132.533,-121 143.647,-121"/>
<polygon fill="black" stroke="black" points="110.254,-117.5 100.254,-121 110.254,-124.5 110.254,-117.5"/>
<polygon fill="black" stroke="black" points="143.854,-124.5 153.854,-121 143.854,-117.5 143.854,-124.5"/>
</g>
<!-- cancel -->
<g id="node11" class="node"><title>cancel</title>
<ellipse fill="lightgrey" stroke="lightgrey" cx="82" cy="-46" rx="66.2071" ry="18"/>
<text text-anchor="middle" x="82" y="-41.9" font-family="Times Roman,serif" font-size="14.00">Annullieren</text>
</g>
<!-- draft&#45;&gt;cancel -->
<g id="edge26" class="edge"><title>draft&#45;&gt;cancel</title>
<path fill="none" stroke="black" d="M61.7538,-93.4521C64.5719,-86.8471 67.5795,-79.7981 70.391,-73.2086"/>
<polygon fill="black" stroke="black" points="58.4515,-92.2732 57.7463,-102.845 64.89,-95.0204 58.4515,-92.2732"/>
<polygon fill="black" stroke="black" points="73.6198,-74.5596 74.325,-63.9882 67.1814,-71.8124 73.6198,-74.5596"/>
</g>
<!-- quotation&#45;&gt;state_quotation -->
<g id="edge8" class="edge"><title>quotation&#45;&gt;state_quotation</title>
<path fill="none" stroke="black" d="M205,-139.042C205,-149.775 205,-163.449 205,-174.709"/>
</g>
<!-- confirm -->
<g id="node8" class="node"><title>confirm</title>
<ellipse fill="yellow" stroke="yellow" cx="356" cy="-121" rx="46.7546" ry="18"/>
<text text-anchor="middle" x="356" y="-116.9" font-family="Times Roman,serif" font-size="14.00">Auftrag</text>
</g>
<!-- quotation&#45;&gt;confirm -->
<g id="edge18" class="edge"><title>quotation&#45;&gt;confirm</title>
<path fill="none" stroke="black" d="M256.021,-121C270.163,-121 284.305,-121 298.447,-121"/>
<polygon fill="black" stroke="black" points="298.745,-124.5 308.745,-121 298.744,-117.5 298.745,-124.5"/>
</g>
<!-- quotation&#45;&gt;cancel -->
<g id="edge28" class="edge"><title>quotation&#45;&gt;cancel</title>
<path fill="none" stroke="black" d="M179.215,-105.278C161.377,-94.4008 137.405,-79.7835 117.729,-67.786"/>
<polygon fill="black" stroke="black" points="119.389,-64.6986 109.029,-62.4808 115.744,-70.6752 119.389,-64.6986"/>
</g>
<!-- confirm&#45;&gt;state_confirmed -->
<g id="edge10" class="edge"><title>confirm&#45;&gt;state_confirmed</title>
<path fill="none" stroke="black" d="M356,-139.042C356,-149.775 356,-163.449 356,-174.709"/>
</g>
<!-- done -->
<g id="node9" class="node"><title>done</title>
<ellipse fill="yellow" stroke="yellow" cx="505" cy="-121" rx="48.1403" ry="18"/>
<text text-anchor="middle" x="505" y="-116.9" font-family="Times Roman,serif" font-size="14.00">Erledigt</text>
</g>
<!-- confirm&#45;&gt;done -->
<g id="edge24" class="edge"><title>confirm&#45;&gt;done</title>
<path fill="none" stroke="black" stroke-dasharray="1,5" d="M403.145,-121C417.692,-121 432.239,-121 446.786,-121"/>
<polygon fill="black" stroke="black" points="446.857,-124.5 456.857,-121 446.857,-117.5 446.857,-124.5"/>
</g>
<!-- wkf_other -->
<g id="node13" class="node"><title>wkf_other</title>
<polygon fill="lightblue" stroke="lightblue" points="502,-67 358,-67 358,-25 502,-25 502,-67"/>
<text text-anchor="start" x="366" y="-50.4" font-family="Times Roman,serif" font-size="14.00">Lieferungs&#45; und</text>
<text text-anchor="start" x="366" y="-33.4" font-family="Times Roman,serif" font-size="14.00">Rechnungsprozess</text>
</g>
<!-- confirm&#45;&gt;wkf_other -->
<g id="edge20" class="edge"><title>confirm&#45;&gt;wkf_other:nw</title>
<path fill="none" stroke="black" stroke-dasharray="1,5" d="M351.048,-102.993C349.545,-94.3744 349.063,-84.1119 352.424,-75.6327"/>
<polygon fill="black" stroke="black" points="355.514,-77.299 358,-67 349.634,-73.5008 355.514,-77.299"/>
</g>
<!-- done&#45;&gt;state_done -->
<g id="edge12" class="edge"><title>done&#45;&gt;state_done</title>
<path fill="none" stroke="black" d="M505,-139.042C505,-149.775 505,-163.449 505,-174.709"/>
</g>
<!-- state_canceled -->
<g id="node12" class="node"><title>state_canceled</title>
<text text-anchor="start" x="233.5" y="-50.4" font-family="Times Roman,serif" font-size="14.00">Status:</text>
<text text-anchor="start" x="233.5" y="-33.4" font-family="Times Roman,serif" font-size="14.00">Annulliert</text>
</g>
<!-- cancel&#45;&gt;state_canceled -->
<g id="edge4" class="edge"><title>cancel&#45;&gt;state_canceled</title>
<path fill="none" stroke="black" d="M148.117,-46C174.029,-46 199.942,-46 225.854,-46"/>
</g>
<!-- wkf_other&#45;&gt;done -->
<g id="edge22" class="edge"><title>wkf_other:ne&#45;&gt;done</title>
<path fill="none" stroke="black" stroke-dasharray="1,5" d="M502,-67C508.657,-73.657 510.56,-83.383 510.411,-92.7527"/>
<polygon fill="black" stroke="black" points="506.9,-92.7308 509.515,-102.998 513.873,-93.3404 506.9,-92.7308"/>
</g>
</g>
</svg>
